M48
;GenerationSoftware,Autodesk,EAGLE,9.4.2*%
;CreationDate,2019-09-05T00:15:00Z*%
FMAT,2
ICI,OFF
METRIC,TZ,000.000
T3C0.203
T2C0.350
T1C4.100
%
G90
M71
T1
X31750Y8255
X57150Y8255
T2
X45212Y3200
X26162Y20955
X20701Y20955
X6096Y8890
X9507Y8890
X37930Y18161
X38608Y1524
X54102Y18796
X36246Y18161
X46990Y7010
X31750Y20828
X7798Y8890
X51054Y18796
X66548Y9931
X34036Y20828
X55118Y1270
X71628Y1245
X69850Y22352
X76810Y14500
X53035Y13894
X38608Y4572
X46990Y4470
X69342Y19812
X14478Y20828
X45212Y7010
X38608Y3048
X42672Y1524
X52578Y18796
X38608Y6096
X69088Y9931
X85750Y3500
X71628Y9931
X85750Y4600
X57150Y18796
X68072Y22352
X55626Y18796
X73406Y22352
X63246Y22352
X76810Y5700
X64516Y22352
X79080Y6807
X55626Y14732
X77876Y12300
X69088Y1245
T3
X39167Y15649
X39167Y14887
X45745Y12116
X39167Y16411
X46507Y12116
X42200Y12116
X10160Y22352
X46700Y22682
X43637Y12116
X45720Y10516
X45720Y9754
X47269Y12116
X3175Y22352
X41200Y22682
X44700Y11557
M30